<svg width="78" height="100" viewBox="0 0 78 100" fill="none" xmlns="http://www.w3.org/2000/svg">
<path d="M67.4134 73.4867C66.08 72.8684 64.8119 72.2484 63.5917 71.6268C67.4462 65.5975 68.7753 58.2941 67.2917 51.2934C64.7601 40.1584 64.9583 38.6551 65.8867 31.435C66.0533 30.1184 66.2517 28.6217 66.455 26.8549C67.0818 21.4398 66.73 13.7531 61.4933 7.87656C56.8335 2.65176 49.2685 0 39.0001 0C28.7318 0 21.1667 2.65176 16.5001 7.88008C11.2634 13.7568 10.9119 21.4434 11.5384 26.8584C11.7417 28.625 11.9367 30.1217 12.1068 31.4385C13.0402 38.6584 13.2333 40.1617 10.7017 51.2951C9.2187 58.2959 10.5476 65.5988 14.4017 71.6285C13.1851 72.2484 11.9267 72.8686 10.5884 73.4836C6.88667 75.167 0.666748 80.6285 0.666748 98.3336C0.666748 99.2541 1.41284 100 2.33335 100H75.6667C76.5872 100 77.3333 99.2541 77.3333 98.3336C77.3335 80.6283 71.1134 75.1666 67.4134 73.4867ZM13.9585 52.0367C16.6251 40.3217 16.3669 38.35 15.4185 31.0117C15.2519 29.7066 15.0585 28.225 14.8552 26.475C14.3085 21.7383 14.5802 15.0518 18.9953 10.0967C23.0001 5.6084 29.7251 3.3334 39.0001 3.3334C48.2751 3.3334 55.0001 5.6084 59.0001 10.0967C63.4152 15.0518 63.6869 21.7383 63.1402 26.475C62.9369 28.225 62.7453 29.7066 62.5769 31.0117C61.6287 38.3451 61.3718 40.3217 64.0369 52.0385C65.331 58.2576 64.1091 64.7363 60.6386 70.0568C59.657 69.5086 58.7103 68.9602 57.8369 68.4152C56.5605 67.6211 55.4255 66.6195 54.4785 65.452C52.8972 63.5361 51.8609 61.2299 51.4785 58.7752C51.3369 57.9201 51.2152 57.1168 51.1001 56.3553C54.5951 52.8854 57.3335 48.667 57.3335 45.0002C57.4156 40.6453 57.9576 36.3113 58.9501 32.0701C59.0603 31.6291 58.9855 31.1623 58.7431 30.7779C58.5007 30.3934 58.1121 30.1246 57.6667 30.0336C52.5285 29.0035 48.5001 22.367 45.555 17.5219C44.5103 15.6092 43.2691 13.8107 41.8517 12.1553C40.3333 10.6488 38.1417 10.0387 36.0634 10.5436C31.9851 11.377 28.0501 15.4053 25.7917 21.0436C22.9851 28.0619 19.7917 30.2418 19.7818 30.2535C19.1749 30.6381 18.8828 31.3682 19.0568 32.0652C20.0492 36.3078 20.5888 40.6437 20.6667 45.0002C20.6667 48.6668 23.405 52.8852 26.9017 56.3553C26.7867 57.1186 26.665 57.9236 26.5201 58.7887C26.1359 61.2396 25.0998 63.5424 23.5201 65.4553C22.5716 66.6211 21.4363 67.6215 20.1601 68.4152C19.2902 68.9586 18.3435 69.5053 17.3652 70.0519C13.8927 64.7332 12.6677 58.2559 13.9585 52.0367ZM39.0001 66.6666C35.1929 66.7109 31.4003 66.1885 27.7468 65.1166C28.7773 63.3287 29.4761 61.3695 29.8101 59.3332C29.83 59.2133 29.8468 59.1031 29.8667 58.9865C33.1667 61.5748 36.6517 63.3332 39.0001 63.3332C41.3484 63.3332 44.8335 61.5748 48.1335 58.9781C48.1519 59.0898 48.1685 59.1965 48.1869 59.3115C48.5203 61.3559 49.2205 63.323 50.2535 65.1182C46.5999 66.1895 42.8072 66.7113 39.0001 66.6666ZM40.6667 71.6666C40.6667 72.5871 39.9206 73.3332 39.0001 73.3332C38.0796 73.3332 37.3335 72.5871 37.3335 71.6666C37.3335 70.7461 38.0796 70 39.0001 70C39.9206 70 40.6667 70.7463 40.6667 71.6666ZM39.0001 60C34.9585 60 24.0001 50.7018 24.0001 45C23.9359 40.7295 23.4412 36.4762 22.5234 32.3051C25.3673 29.4842 27.5404 26.0596 28.8818 22.2852C31.0902 16.7652 34.4884 14.2686 36.7285 13.8084C37.708 13.533 38.7601 13.8012 39.4884 14.5117C40.7013 15.9904 41.7765 17.577 42.7001 19.2518C45.6835 24.165 49.6751 30.74 55.3667 32.8352C54.5169 36.8361 54.0591 40.9104 54.0001 45.0002C54.0001 50.7018 43.0417 60 39.0001 60ZM62.3335 96.6666H15.6667V87.5383C17.4384 86.36 22.4634 83.3332 27.3333 83.3332C30.7056 83.3406 34.0644 83.7631 37.3333 84.5916V90C37.3333 90.9205 38.0794 91.6666 38.9999 91.6666C39.9205 91.6666 40.6665 90.9205 40.6665 90V84.59C43.9353 83.7604 47.2941 83.3383 50.6665 83.3334C55.5365 83.3334 60.5615 86.3602 62.3331 87.5385V96.6666H62.3335ZM65.6667 96.6666V86.6666C65.6667 86.625 65.6468 86.5916 65.6435 86.5516C65.6331 86.4385 65.6109 86.3268 65.5769 86.2182C65.5529 86.1178 65.5187 86.0201 65.4751 85.9266C65.4279 85.8369 65.372 85.7522 65.3085 85.6732C65.2415 85.5801 65.165 85.4941 65.0802 85.4166C65.0501 85.3916 65.0353 85.3549 65.0035 85.3316C64.7134 85.1133 57.8101 79.9982 50.6701 79.9982C46.7269 79.9951 42.8019 80.5301 39.0035 81.5883C35.2038 80.5305 31.2777 79.9961 27.3335 80C20.1935 80 13.2902 85.115 13.0001 85.3334C12.9685 85.3568 12.9535 85.3934 12.9234 85.4184C12.8386 85.4959 12.7621 85.5818 12.6951 85.675C12.6314 85.7539 12.5755 85.8387 12.5285 85.9283C12.4849 86.0219 12.4509 86.1195 12.4267 86.2199C12.3927 86.3283 12.3705 86.44 12.3601 86.5533C12.3601 86.5934 12.3367 86.6266 12.3367 86.6684V96.6684H4.02007C4.38335 81.615 9.65835 77.5684 11.98 76.515C15.3958 74.9701 18.7117 73.2135 21.9083 71.2551C23.3453 70.3566 24.6376 69.2457 25.7417 67.9602C28.5333 68.9176 31.4326 69.5271 34.3734 69.7752C34.1261 70.3752 33.9992 71.018 34.0001 71.6668C34.0001 74.4281 36.2386 76.6668 39.0001 76.6668C41.7615 76.6668 44.0001 74.4283 44.0001 71.6668C43.9997 71.017 43.871 70.3736 43.6218 69.7734C46.5626 69.5258 49.4619 68.916 52.2535 67.9584C53.3579 69.2422 54.6503 70.3514 56.0869 71.2484C59.289 73.2102 62.6105 74.9703 66.0318 76.5184C68.3451 77.5666 73.6201 81.6133 73.9835 96.6666H65.6667Z" fill="#CD3F3E"/>
</svg>
