<svg width="100" height="100" viewBox="0 0 100 100" fill="none" xmlns="http://www.w3.org/2000/svg">
<path d="M85.9375 65.6251H83.8281L80.4688 58.0626C79.6087 56.1284 78.2064 54.4851 76.4315 53.3314C74.6567 52.1778 72.5855 51.5634 70.4688 51.5626H62.5V37.5001H64.0625C64.4769 37.5001 64.8743 37.3355 65.1674 37.0425C65.4604 36.7495 65.625 36.352 65.625 35.9376V20.3126C65.625 19.8982 65.4604 19.5008 65.1674 19.2078C64.8743 18.9148 64.4769 18.7501 64.0625 18.7501H54.5156C55.5597 17.7345 56.3894 16.5199 56.9557 15.1779C57.5219 13.836 57.8133 12.3941 57.8125 10.9376C57.8125 10.5232 57.6479 10.1258 57.3549 9.83278C57.0618 9.53975 56.6644 9.37513 56.25 9.37513C55.8356 9.37513 55.4382 9.53975 55.1451 9.83278C54.8521 10.1258 54.6875 10.5232 54.6875 10.9376C54.6819 12.5278 54.1913 14.0783 53.2811 15.3822C52.3709 16.6861 51.0845 17.6812 49.5938 18.2345C50.3898 17.2406 50.975 16.095 51.3137 14.8675C51.6524 13.64 51.7375 12.3564 51.5638 11.0949C51.3901 9.83345 50.9613 8.62059 50.3034 7.53032C49.6455 6.44005 48.7725 5.49523 47.7374 4.7535C46.7024 4.01176 45.5271 3.48865 44.2832 3.21608C43.0394 2.94351 41.753 2.92719 40.5027 3.16812C39.2523 3.40905 38.0641 3.90217 37.0106 4.61742C35.9571 5.33266 35.0603 6.25503 34.375 7.32826C33.6897 6.25503 32.7929 5.33266 31.7394 4.61742C30.6859 3.90217 29.4977 3.40905 28.2473 3.16812C26.997 2.92719 25.7106 2.94351 24.4668 3.21608C23.2229 3.48865 22.0476 4.01176 21.0126 4.7535C19.9775 5.49523 19.1045 6.44005 18.4466 7.53032C17.7887 8.62059 17.3599 9.83345 17.1862 11.0949C17.0125 12.3564 17.0976 13.64 17.4363 14.8675C17.775 16.095 18.3602 17.2406 19.1562 18.2345C17.6655 17.6812 16.3791 16.6861 15.4689 15.3822C14.5587 14.0783 14.0681 12.5278 14.0625 10.9376C14.0625 10.5232 13.8979 10.1258 13.6049 9.83278C13.3118 9.53975 12.9144 9.37513 12.5 9.37513C12.0856 9.37513 11.6882 9.53975 11.3951 9.83278C11.1021 10.1258 10.9375 10.5232 10.9375 10.9376C10.9367 12.3941 11.2281 13.836 11.7943 15.1779C12.3606 16.5199 13.1903 17.7345 14.2344 18.7501H4.6875C4.2731 18.7501 3.87567 18.9148 3.58265 19.2078C3.28962 19.5008 3.125 19.8982 3.125 20.3126V35.9376C3.125 36.352 3.28962 36.7495 3.58265 37.0425C3.87567 37.3355 4.2731 37.5001 4.6875 37.5001H6.25V71.8751H4.6875C4.2731 71.8751 3.87567 72.0398 3.58265 72.3328C3.28962 72.6258 3.125 73.0232 3.125 73.4376V84.3751C3.125 84.7895 3.28962 85.187 3.58265 85.48C3.87567 85.773 4.2731 85.9376 4.6875 85.9376H6.25V87.5001C6.25371 88.7422 6.74876 89.9323 7.62704 90.8106C8.50531 91.6889 9.69544 92.1839 10.9375 92.1876H20.0156C20.8362 93.6127 22.0179 94.7963 23.4415 95.6193C24.8652 96.4424 26.4806 96.8757 28.125 96.8757C29.7694 96.8757 31.3848 96.4424 32.8085 95.6193C34.2321 94.7963 35.4138 93.6127 36.2344 92.1876H70.0156C70.8362 93.6127 72.0179 94.7963 73.4415 95.6193C74.8652 96.4424 76.4806 96.8757 78.125 96.8757C79.7694 96.8757 81.3848 96.4424 82.8085 95.6193C84.2321 94.7963 85.4138 93.6127 86.2344 92.1876H92.1875C93.4296 92.1839 94.6197 91.6889 95.498 90.8106C96.3762 89.9323 96.8713 88.7422 96.875 87.5001V76.5626C96.8717 73.6628 95.7183 70.8828 93.6678 68.8323C91.6174 66.7818 88.8373 65.6284 85.9375 65.6251ZM68.75 54.6876H70.4688C71.9797 54.6904 73.4576 55.1299 74.7245 55.9532C75.9914 56.7766 76.9932 57.9487 77.6094 59.3283L80.4062 65.6251H70.3125C69.8981 65.6251 69.5007 65.4605 69.2076 65.1675C68.9146 64.8745 68.75 64.477 68.75 64.0626V54.6876ZM62.5 21.8751V34.3751H42.1875V21.8751H62.5ZM59.375 37.5001V71.8751H42.1875V37.5001H59.375ZM35.9375 12.5001C35.9375 11.264 36.3041 10.0556 36.9908 9.02782C37.6776 8.00001 38.6537 7.19893 39.7957 6.72589C40.9378 6.25284 42.1944 6.12907 43.4068 6.37023C44.6192 6.61138 45.7328 7.20664 46.6069 8.08072C47.481 8.95479 48.0763 10.0684 48.3174 11.2808C48.5586 12.4932 48.4348 13.7499 47.9617 14.8919C47.4887 16.0339 46.6876 17.0101 45.6598 17.6968C44.632 18.3836 43.4236 18.7501 42.1875 18.7501H35.9375V12.5001ZM39.0625 21.8751V71.8751H29.6875V21.8751H39.0625ZM26.5625 6.25013C28.2201 6.25013 29.8098 6.90861 30.9819 8.08072C32.154 9.25282 32.8125 10.8425 32.8125 12.5001V18.7501H26.5625C24.9049 18.7501 23.3152 18.0917 22.1431 16.9196C20.971 15.7474 20.3125 14.1577 20.3125 12.5001C20.3125 10.8425 20.971 9.25282 22.1431 8.08072C23.3152 6.90861 24.9049 6.25013 26.5625 6.25013ZM6.25 21.8751H26.5625V34.3751H6.25V21.8751ZM26.5625 37.5001V71.8751H9.375V37.5001H26.5625ZM18.8906 89.0626H10.9375C10.5231 89.0626 10.1257 88.898 9.83265 88.605C9.53962 88.312 9.375 87.9145 9.375 87.5001V85.9376H18.8906C18.7031 86.9709 18.7031 88.0294 18.8906 89.0626ZM28.125 93.7501C26.8889 93.7501 25.6805 93.3836 24.6527 92.6968C23.6249 92.0101 22.8238 91.0339 22.3508 89.8919C21.8777 88.7499 21.7539 87.4932 21.9951 86.2808C22.2362 85.0684 22.8315 83.9548 23.7056 83.0807C24.5797 82.2066 25.6933 81.6114 26.9057 81.3702C28.1181 81.1291 29.3747 81.2528 30.5168 81.7259C31.6588 82.1989 32.6349 83 33.3217 84.0278C34.0084 85.0556 34.375 86.264 34.375 87.5001C34.375 89.1577 33.7165 90.7475 32.5444 91.9195C31.3723 93.0917 29.7826 93.7501 28.125 93.7501ZM28.125 78.1251C26.481 78.1268 24.8663 78.5608 23.443 79.3836C22.0196 80.2063 20.8376 81.3889 20.0156 82.8126H6.25V75.0001H59.375V82.8126H36.2344C35.4124 81.3889 34.2304 80.2063 32.807 79.3836C31.3837 78.5608 29.769 78.1268 28.125 78.1251ZM68.8906 89.0626H37.3594C37.5469 88.0294 37.5469 86.9709 37.3594 85.9376H68.8906C68.7031 86.9709 68.7031 88.0294 68.8906 89.0626ZM78.125 93.7501C76.8889 93.7501 75.6805 93.3836 74.6527 92.6968C73.6249 92.0101 72.8238 91.0339 72.3508 89.8919C71.8777 88.7499 71.7539 87.4932 71.9951 86.2808C72.2363 85.0684 72.8315 83.9548 73.7056 83.0807C74.5797 82.2066 75.6933 81.6114 76.9057 81.3702C78.1181 81.1291 79.3747 81.2528 80.5168 81.7259C81.6588 82.1989 82.6349 83 83.3217 84.0278C84.0084 85.0556 84.375 86.264 84.375 87.5001C84.375 89.1577 83.7165 90.7475 82.5444 91.9195C81.3723 93.0917 79.7826 93.7501 78.125 93.7501ZM93.75 87.5001C93.75 87.9145 93.5854 88.312 93.2924 88.605C92.9993 88.898 92.6019 89.0626 92.1875 89.0626H87.3594C87.5469 88.0294 87.5469 86.9709 87.3594 85.9376H93.75V87.5001ZM93.75 82.8126H86.2344C85.4138 81.3876 84.2321 80.2039 82.8085 79.3809C81.3848 78.5579 79.7694 78.1246 78.125 78.1246C76.4806 78.1246 74.8652 78.5579 73.4415 79.3809C72.0179 80.2039 70.8362 81.3876 70.0156 82.8126H62.5V54.6876H65.625V64.0626C65.6287 65.3047 66.1238 66.4948 67.002 67.3731C67.8803 68.2514 69.0704 68.7464 70.3125 68.7501H85.9375C88.0095 68.7501 89.9966 69.5732 91.4618 71.0384C92.9269 72.5035 93.75 74.4906 93.75 76.5626V82.8126Z" fill="#CD3F3E"/>
<path d="M70.3125 73.4375H73.4375C73.8519 73.4375 74.2493 73.2729 74.5424 72.9799C74.8354 72.6868 75 72.2894 75 71.875C75 71.4606 74.8354 71.0632 74.5424 70.7701C74.2493 70.4771 73.8519 70.3125 73.4375 70.3125H70.3125C69.8981 70.3125 69.5007 70.4771 69.2076 70.7701C68.9146 71.0632 68.75 71.4606 68.75 71.875C68.75 72.2894 68.9146 72.6868 69.2076 72.9799C69.5007 73.2729 69.8981 73.4375 70.3125 73.4375Z" fill="#CD3F3E"/>
</svg>
