<svg width="100" height="100" viewBox="0 0 100 100" fill="none" xmlns="http://www.w3.org/2000/svg">
<path d="M12.6633 18.2281C15.3084 19.3985 17.2982 21.7743 17.9863 24.5834L18.8767 28.2226C19.0377 28.878 19.6251 29.3388 20.2996 29.3388C20.9748 29.3388 21.5622 28.878 21.7224 28.2226L22.6136 24.5834C23.301 21.7743 25.2907 19.3985 27.9358 18.2281C28.4661 17.9939 28.8079 17.4682 28.8079 16.8884C28.8079 16.3093 28.4661 15.7837 27.9358 15.5494C25.2907 14.3791 23.301 12.0025 22.6136 9.19339L21.7224 5.55493C21.5622 4.89957 20.9748 4.43799 20.2996 4.43799C19.6251 4.43799 19.0377 4.89957 18.8767 5.55493L17.9863 9.19339C17.2982 12.0025 15.3084 14.3791 12.6633 15.5494C12.1331 15.7837 11.7913 16.3093 11.7913 16.8884C11.7913 17.4682 12.1331 17.9939 12.6633 18.2281ZM20.2996 11.541C21.1579 13.6696 22.6044 15.5296 24.4461 16.8884C22.6044 18.248 21.1579 20.1072 20.2996 22.2366C19.4413 20.1072 17.9947 18.248 16.153 16.8884C17.9947 15.5296 19.4413 13.6696 20.2996 11.541Z" fill="#CD3F3E"/>
<path d="M78.9482 41.6198C78.9482 34.2315 76.1177 27.2407 70.9793 21.9344C65.8532 16.6404 58.9814 13.5863 51.6297 13.3353C45.8977 13.1423 40.3038 14.675 35.4599 17.7756C34.7786 18.212 34.5803 19.1176 35.0159 19.7989C35.4523 20.4802 36.3587 20.6794 37.04 20.243C41.3811 17.4636 46.386 16.0834 51.5297 16.2635C65.2619 16.7327 76.0186 27.8701 76.0186 41.6198C76.0186 49.3491 72.5579 56.562 66.5238 61.4089C64.0663 63.3834 62.6564 66.2902 62.6564 69.3832V70.1324H60.5294C59.7199 70.1324 59.0645 70.7885 59.0645 71.5972C59.0645 72.4067 59.7199 73.0621 60.5294 73.0621H62.6564V78.0173H39.3502V73.0621H54.0184C54.8279 73.0621 55.4833 72.4067 55.4833 71.5972C55.4833 70.7885 54.8279 70.1324 54.0184 70.1324H52.4681V54.2563L57.9384 48.7861C58.5106 48.2139 58.5106 47.2861 57.9384 46.7147C57.367 46.1425 56.4392 46.1425 55.867 46.7147L51.0041 51.5777L46.1403 46.7147C45.5681 46.1425 44.6404 46.1425 44.0682 46.7147C43.496 47.2869 43.496 48.2139 44.0682 48.7861L49.5392 54.2563V70.1324H39.3502V70.0027C39.3502 66.8044 37.8502 63.758 35.3379 61.8537C28.8529 56.9396 25.1854 49.4597 25.2762 41.3314C25.3472 34.9227 27.8412 28.8199 32.2991 24.1492C32.8575 23.564 32.8362 22.6363 32.2502 22.0778C31.6658 21.5201 30.7389 21.5407 30.1796 22.1267C25.2076 27.336 22.4259 34.1453 22.3465 41.2986C22.2962 45.8663 23.301 50.2372 25.3327 54.2892C27.2683 58.1496 30.1163 61.5729 33.5678 64.1891C35.3539 65.5425 36.4205 67.7161 36.4205 70.0027V82.7766C36.4205 87.4618 40.2321 91.2727 44.9166 91.2727H49.5385V98.5351C49.5385 99.3446 50.1946 99.9999 51.0033 99.9999C51.8128 99.9999 52.4681 99.3446 52.4681 98.5351V91.2727H57.09C61.7752 91.2727 65.5861 87.4618 65.5861 82.7766V69.3832C65.5861 67.1828 66.597 65.1084 68.3586 63.6932C75.0885 58.287 78.9482 50.2418 78.9482 41.6198ZM57.09 88.343H44.9166C41.8473 88.343 39.3502 85.8459 39.3502 82.7766V80.947H62.6564V82.7766C62.6564 85.8459 60.1593 88.343 57.09 88.343Z" fill="#CD3F3E"/>
<path d="M70.2759 16.6832H84.0294C84.8381 16.6832 85.4942 16.0278 85.4942 15.2184V1.46484C85.4942 0.655365 84.8381 0 84.0294 0H70.2759C69.4664 0 68.811 0.655365 68.811 1.46484V15.2184C68.811 16.0278 69.4664 16.6832 70.2759 16.6832ZM71.7407 2.92969H82.5645V13.7535H71.7407V2.92969Z" fill="#CD3F3E"/>
<path d="M22.2282 57.4731L7.08008 48.7275C6.62689 48.4658 6.06842 48.4658 5.61523 48.7275C5.16205 48.9892 4.88281 49.4729 4.88281 49.9963V67.4874C4.88281 68.0116 5.16205 68.4945 5.61523 68.7562C5.84183 68.8874 6.09436 68.9523 6.34766 68.9523C6.60095 68.9523 6.85349 68.8874 7.08008 68.7562L22.2282 60.0106C22.6814 59.7489 22.9607 59.2652 22.9607 58.7419C22.9607 58.2185 22.6822 57.7348 22.2282 57.4731ZM7.8125 64.9507V52.5331L18.5669 58.7419L7.8125 64.9507Z" fill="#CD3F3E"/>
<path d="M87.9159 25.022C84.0241 25.022 80.8579 28.1882 80.8579 32.0799C80.8579 35.9717 84.0241 39.1379 87.9159 39.1379C91.8076 39.1379 94.9738 35.9717 94.9738 32.0799C94.9738 28.1882 91.8076 25.022 87.9159 25.022ZM87.9159 36.2082C85.64 36.2082 83.7876 34.3565 83.7876 32.0799C83.7876 29.8033 85.64 27.9517 87.9159 27.9517C90.1925 27.9517 92.0441 29.8033 92.0441 32.0799C92.0441 34.3565 90.1925 36.2082 87.9159 36.2082Z" fill="#CD3F3E"/>
<path d="M90.8676 77.6261C87.1917 76.0002 84.4261 72.6975 83.4701 68.7928L82.2791 63.9267C82.1182 63.2714 81.5307 62.8105 80.8563 62.8105C80.1811 62.8105 79.5936 63.2714 79.4334 63.9267L78.2417 68.7928C77.2857 72.6975 74.5201 75.9995 70.8442 77.6261C70.314 77.8611 69.9722 78.386 69.9722 78.9658C69.9722 79.5456 70.314 80.0705 70.8442 80.3055C74.5201 81.9321 77.2857 85.2341 78.2417 89.1388L79.4334 94.0049C79.5936 94.6602 80.1811 95.1218 80.8563 95.1218C81.5307 95.1218 82.1182 94.6602 82.2791 94.0049L83.4701 89.1388C84.4261 85.2341 87.1917 81.9321 90.8676 80.3055C91.3986 80.0705 91.7404 79.5456 91.7404 78.9658C91.7404 78.386 91.3986 77.8611 90.8676 77.6261ZM80.8563 87.5992C79.7813 84.0744 77.4917 81.0105 74.4537 78.9658C77.4917 76.9219 79.7813 73.8579 80.8563 70.3331C81.9305 73.8579 84.2208 76.9219 87.2581 78.9658C84.2208 81.0105 81.9305 84.0744 80.8563 87.5992Z" fill="#CD3F3E"/>
</svg>
