<svg width="29" height="26" viewBox="0 0 29 26" fill="none" xmlns="http://www.w3.org/2000/svg">
<path d="M28.5703 4.52957C28.5082 4.37968 28.4031 4.25156 28.2682 4.16142C28.1333 4.07128 27.9747 4.02317 27.8125 4.02316H23.4931C23.029 3.16633 22.3714 2.42958 21.5726 1.87148C20.7738 1.31338 19.8558 0.949308 18.8916 0.80821C17.9274 0.667113 16.9436 0.752879 16.0184 1.05869C15.0932 1.3645 14.252 1.88193 13.5619 2.56984C12.9664 3.15038 12.4931 3.84418 12.1699 4.6104C11.8466 5.37662 11.68 6.19977 11.6796 7.03138V8.21427C6.04 6.85132 2.24236 2.19249 2.20298 2.14355C2.10465 2.02065 1.97302 1.92864 1.82383 1.87849C1.67463 1.82834 1.51415 1.82218 1.36155 1.86074C1.20894 1.89929 1.07065 1.98094 0.963172 2.09593C0.855696 2.21092 0.783572 2.35441 0.755407 2.50927C0.100524 6.11044 0.0262858 11.2606 3.39011 15.3455C4.40021 16.5759 5.63863 17.5995 7.03722 18.3599C5.85556 20.2555 2.65771 21.2853 1.40168 21.5392C1.25608 21.5683 1.1211 21.6363 1.01115 21.7361C0.901202 21.8359 0.820397 21.9637 0.777356 22.1058C0.734314 22.2479 0.73065 22.399 0.766753 22.543C0.802857 22.687 0.877375 22.8186 0.98236 22.9236C1.08148 23.0227 3.46381 25.3513 8.12496 25.3513C12.9545 25.3513 17.0888 23.6032 20.081 20.2961C22.6613 17.4442 24.1719 13.549 24.2542 9.56177L28.3926 5.42357C28.5073 5.30883 28.5854 5.16266 28.617 5.00352C28.6487 4.84439 28.6324 4.67945 28.5703 4.52957ZM22.8574 8.63837C22.7812 8.71456 22.7208 8.805 22.6796 8.90453C22.6383 9.00406 22.6171 9.11074 22.6171 9.21847C22.6171 12.923 21.2493 16.5595 18.8642 19.1955C16.1919 22.1493 12.4781 23.7107 8.12496 23.7107C6.06324 23.7107 4.54757 23.1816 3.63908 22.7376C3.58129 22.7094 3.52519 22.6812 3.47078 22.653C5.32482 22.0082 8.09064 20.6655 8.90316 18.2278C8.97028 18.0264 8.95669 17.8068 8.86526 17.6152C8.77383 17.4236 8.61168 17.2749 8.41289 17.2004C8.3932 17.193 6.41078 16.4326 4.65668 14.3025C2.56351 11.7609 1.71627 8.46119 2.12916 4.4772C3.91129 6.23636 7.55361 9.22572 12.3652 10.0276C12.4827 10.0471 12.603 10.0409 12.7179 10.0093C12.8327 9.97761 12.9393 9.92133 13.0302 9.84433C13.1211 9.76733 13.1941 9.67146 13.2442 9.56337C13.2943 9.45529 13.3203 9.3376 13.3203 9.21847V7.03124C13.3318 5.79169 13.8334 4.60707 14.7155 3.73612C15.5976 2.86516 16.7884 2.37864 18.028 2.38281C18.9224 2.39518 19.7943 2.66476 20.5395 3.15933C21.2848 3.65391 21.8719 4.35258 22.2308 5.17187C22.2946 5.31804 22.3997 5.44242 22.5332 5.52979C22.6666 5.61716 22.8227 5.66372 22.9822 5.66378H25.8319L22.8574 8.63837Z" fill="#1C2938"/>
</svg>
