<svg width="29" height="29" viewBox="0 0 29 29" fill="none" xmlns="http://www.w3.org/2000/svg">
<path d="M28.7188 14.5C28.7188 11.688 27.8849 8.93904 26.3227 6.60086C24.7605 4.26268 22.54 2.44022 19.9421 1.36393C17.3442 0.287646 14.4854 0.00586024 11.7274 0.554206C8.9693 1.10255 6.43576 2.4564 4.44709 4.44458C2.45842 6.43275 1.10393 8.96595 0.554899 11.7239C0.00586429 14.4818 0.286936 17.3406 1.36257 19.9388C2.43821 22.537 4.26011 24.7579 6.59791 26.3207C8.9357 27.8835 11.6844 28.7181 14.4965 28.7188H14.5L14.5036 28.7186C18.2727 28.7134 21.8859 27.2136 24.5507 24.5482C27.2156 21.8827 28.7145 18.2691 28.7188 14.5ZM15.5938 26.4809V17.7814H18.875C19.1651 17.7814 19.4433 17.6662 19.6484 17.461C19.8535 17.2559 19.9688 16.9777 19.9688 16.6876C19.9688 16.3976 19.8535 16.1194 19.6484 15.9142C19.4433 15.7091 19.1651 15.5939 18.875 15.5939H15.5938V12.3126C15.5944 11.7327 15.8251 11.1767 16.2352 10.7666C16.6453 10.3565 17.2013 10.1258 17.7813 10.1251H19.9688C20.2588 10.1251 20.537 10.0099 20.7422 9.80479C20.9473 9.59967 21.0625 9.32147 21.0625 9.03139C21.0625 8.74131 20.9473 8.46311 20.7422 8.25799C20.537 8.05288 20.2588 7.93764 19.9688 7.93764H17.7813C16.6213 7.93895 15.5093 8.4003 14.6891 9.22049C13.8689 10.0407 13.4076 11.1527 13.4063 12.3126V15.5939H10.125C9.83493 15.5939 9.55673 15.7091 9.35161 15.9142C9.14649 16.1194 9.03126 16.3976 9.03126 16.6876C9.03126 16.9777 9.14649 17.2559 9.35161 17.461C9.55673 17.6662 9.83493 17.7814 10.125 17.7814H13.4063V26.4809C10.323 26.1995 7.46687 24.7402 5.43205 22.4067C3.39723 20.0731 2.34034 17.045 2.48122 13.9521C2.6221 10.8592 3.9499 7.93963 6.18843 5.80074C8.42696 3.66185 11.4039 2.46826 14.5 2.46826C17.5961 2.46826 20.573 3.66185 22.8116 5.80074C25.0501 7.93963 26.3779 10.8592 26.5188 13.9521C26.6597 17.045 25.6028 20.0731 23.568 22.4067C21.5331 24.7402 18.677 26.1995 15.5938 26.4809Z" fill="#1C2938"/>
</svg>
