<svg width="18" height="18" viewBox="0 0 18 18" fill="none" xmlns="http://www.w3.org/2000/svg">
<path d="M1.707 0.979851L16.757 8.17842C16.9089 8.25114 17.0372 8.36535 17.127 8.50785C17.2167 8.65036 17.2644 8.81535 17.2644 8.98378C17.2644 9.15221 17.2167 9.3172 17.127 9.45971C17.0372 9.60221 16.9089 9.71642 16.757 9.78914L1.707 16.9877C1.55265 17.0617 1.38029 17.0898 1.21045 17.0685C1.04061 17.0473 0.88044 16.9778 0.749023 16.8681C0.617607 16.7584 0.520481 16.6133 0.469214 16.45C0.417947 16.2867 0.4147 16.1121 0.459859 15.947L2.35986 8.98414L0.459859 2.01985C0.415064 1.85485 0.418587 1.68045 0.470008 1.51739C0.52143 1.35433 0.618588 1.20947 0.749934 1.10001C0.881281 0.990557 1.04129 0.921115 1.21095 0.899941C1.38061 0.878766 1.55278 0.90675 1.707 0.980565V0.979851ZM1.59629 2.11557L3.327 8.46342H11.1427C11.2724 8.46347 11.3976 8.51056 11.4952 8.59594C11.5928 8.68132 11.6561 8.7992 11.6734 8.92771L11.6784 8.99914C11.6786 9.12872 11.6318 9.25396 11.5467 9.35168C11.4616 9.44939 11.3439 9.51294 11.2156 9.53057L11.1427 9.53557L3.31843 9.53485L1.597 15.8527L15.9584 8.98342L1.59629 2.11485V2.11557Z" fill="white"/>
</svg>
