<svg width="27" height="27" viewBox="0 0 27 27" fill="none" xmlns="http://www.w3.org/2000/svg">
<path d="M13.5 7.21094C12.2561 7.21094 11.0402 7.57978 10.006 8.27083C8.97175 8.96189 8.16567 9.9441 7.68966 11.0933C7.21366 12.2425 7.08912 13.507 7.33178 14.7269C7.57445 15.9469 8.17342 17.0675 9.05296 17.947C9.9325 18.8266 11.0531 19.4256 12.2731 19.6682C13.493 19.9109 14.7575 19.7863 15.9067 19.3103C17.0559 18.8343 18.0381 18.0282 18.7292 16.994C19.4202 15.9598 19.7891 14.7439 19.7891 13.5C19.7872 11.8326 19.124 10.2341 17.945 9.05504C16.7659 7.87602 15.1674 7.21282 13.5 7.21094ZM13.5 18.1484C12.5806 18.1484 11.6819 17.8758 10.9175 17.365C10.153 16.8543 9.55723 16.1283 9.2054 15.2789C8.85357 14.4295 8.76152 13.4948 8.94088 12.5931C9.12024 11.6914 9.56296 10.8632 10.2131 10.2131C10.8632 9.56296 11.6914 9.12024 12.5931 8.94088C13.4948 8.76152 14.4295 8.85357 15.2789 9.2054C16.1283 9.55723 16.8543 10.153 17.365 10.9175C17.8758 11.6819 18.1484 12.5806 18.1484 13.5C18.147 14.7324 17.6568 15.9139 16.7854 16.7854C15.9139 17.6568 14.7324 18.147 13.5 18.1484ZM19.5156 0.101562H7.48438C5.52702 0.103806 3.65048 0.882356 2.26642 2.26642C0.882356 3.65048 0.103806 5.52702 0.101562 7.48438V19.5156C0.103806 21.473 0.882356 23.3495 2.26642 24.7336C3.65048 26.1176 5.52702 26.8962 7.48438 26.8984H19.5156C21.473 26.8962 23.3495 26.1176 24.7336 24.7336C26.1176 23.3495 26.8962 21.473 26.8984 19.5156V7.48438C26.8962 5.52702 26.1176 3.65048 24.7336 2.26642C23.3495 0.882356 21.473 0.103806 19.5156 0.101562ZM25.2578 19.5156C25.2561 21.038 24.6506 22.4976 23.5741 23.5741C22.4976 24.6506 21.038 25.2561 19.5156 25.2578H7.48438C5.96197 25.2561 4.50241 24.6506 3.42591 23.5741C2.34941 22.4976 1.74389 21.038 1.74219 19.5156V7.48438C1.74389 5.96197 2.34941 4.50241 3.42591 3.42591C4.50241 2.34941 5.96197 1.74389 7.48438 1.74219H19.5156C21.038 1.74389 22.4976 2.34941 23.5741 3.42591C24.6506 4.50241 25.2561 5.96197 25.2578 7.48438V19.5156ZM21.9766 6.39062C21.9766 6.66103 21.8964 6.92536 21.7462 7.15019C21.5959 7.37503 21.3824 7.55026 21.1326 7.65374C20.8828 7.75722 20.6079 7.7843 20.3427 7.73154C20.0774 7.67879 19.8338 7.54858 19.6426 7.35737C19.4514 7.16617 19.3212 6.92256 19.2685 6.65735C19.2157 6.39214 19.2428 6.11725 19.3463 5.86742C19.4497 5.6176 19.625 5.40408 19.8498 5.25385C20.0746 5.10362 20.339 5.02344 20.6094 5.02344C20.9718 5.02387 21.3193 5.16805 21.5756 5.42436C21.8319 5.68066 21.9761 6.02816 21.9766 6.39062Z" fill="#1C2938"/>
</svg>
