<svg width="20" height="20" viewBox="0 0 20 20" fill="none" xmlns="http://www.w3.org/2000/svg">
<path d="M3.37582 7.43334C3.39258 7.22451 3.48739 7.02965 3.64135 6.88757C3.79532 6.7455 3.99715 6.66663 4.20666 6.66667H15.7933C16.0028 6.66663 16.2047 6.7455 16.3586 6.88757C16.5126 7.02965 16.6074 7.22451 16.6242 7.43334L17.355 16.5333C17.3734 16.7627 17.3441 16.9933 17.269 17.2108C17.1939 17.4282 17.0746 17.6278 16.9186 17.7969C16.7626 17.966 16.5732 18.1009 16.3625 18.1932C16.1518 18.2856 15.9242 18.3333 15.6942 18.3333H4.30582C4.07576 18.3333 3.8482 18.2856 3.63747 18.1932C3.42675 18.1009 3.23742 17.966 3.0814 17.7969C2.92539 17.6278 2.80607 17.4282 2.73097 17.2108C2.65586 16.9933 2.62659 16.7627 2.64499 16.5333L3.37499 7.43334H3.37582Z" stroke="#2F2F2F" stroke-width="2" stroke-linecap="round" stroke-linejoin="round"/>
<path d="M13.3334 9.16667V5.00001C13.3334 4.11595 12.9822 3.2681 12.3571 2.64298C11.732 2.01786 10.8841 1.66667 10.0001 1.66667C9.11603 1.66667 8.26818 2.01786 7.64306 2.64298C7.01794 3.2681 6.66675 4.11595 6.66675 5.00001V9.16667" stroke="#2F2F2F" stroke-width="2" stroke-linecap="round" stroke-linejoin="round"/>
</svg>
