<svg width="58" height="100" viewBox="0 0 58 100" fill="none" xmlns="http://www.w3.org/2000/svg">
<path d="M38.3958 35.396C45.5754 29.1998 45.6653 18.7839 45.6653 18.3105C45.6635 17.865 45.4834 17.439 45.1653 17.1271C44.8446 16.8104 44.5052 16.5131 44.1488 16.2372L45.2171 11.9658C45.653 10.2218 44.6273 8.44649 42.8989 7.95278L33.9995 5.40959V3.33317C33.9995 1.49228 32.5072 0 30.6663 0H27.3331C25.4922 0 23.9999 1.49228 23.9999 3.33317V5.40803L15.0924 7.95454C13.3604 8.44376 12.3328 10.2229 12.7741 11.9675L13.8424 16.2356C13.4864 16.5127 13.147 16.8104 12.8259 17.1271C12.5078 17.4388 12.3279 17.865 12.3259 18.3105C12.3259 18.7837 12.416 29.1998 19.5954 35.396C14.5357 39.7406 0.668335 54.4248 0.668335 85.0059C0.66775 85.7715 1.18881 86.4388 1.93153 86.6242C10.2669 88.5787 18.7759 89.6992 27.3331 89.9689V93.412C24.3236 93.684 21.4298 94.7043 18.9153 96.3801L18.082 96.9401C17.3162 97.451 17.1096 98.4859 17.6203 99.2516C18.1312 100.017 19.1661 100.224 19.9319 99.7133L20.7652 99.1534C22.7338 97.8498 24.9858 97.0367 27.3331 96.7819V98.3267C27.3331 99.2471 28.0792 99.9932 28.9996 99.9932C29.92 99.9932 30.6661 99.2471 30.6661 98.3267V96.7819C33.014 97.0387 35.266 97.8541 37.234 99.16L38.0673 99.7199C38.5626 100.05 39.1968 100.091 39.7307 99.8278C40.2647 99.5639 40.6172 99.0354 40.6556 98.4411C40.6941 97.8468 40.4127 97.2773 39.9172 96.9469L39.0839 96.387C36.57 94.7088 33.6762 93.6862 30.6661 93.4122V89.9691C39.2233 89.6993 47.7323 88.5789 56.0677 86.6244C56.8104 86.439 57.3315 85.7717 57.3309 85.0061C57.3311 54.4246 43.4637 39.7406 38.3958 35.396ZM24.9134 8.62109C26.3453 8.20901 27.3319 6.89953 27.3331 5.40959V3.33317H30.6663V5.40979C30.6706 6.89621 31.6549 8.20159 33.0827 8.61465L41.9987 11.1662L41.1554 14.5428C37.178 13.1022 32.7833 13.3577 28.9996 15.2493C25.2192 13.3573 20.8283 13.0989 16.8522 14.5344L16.0089 11.1658L24.9134 8.62109ZM28.9998 86.6607C20.5906 86.5138 12.2179 85.516 4.00991 83.6826C4.48819 49.9282 23.0785 36.8807 23.2652 36.7541C23.7283 36.4422 24.0042 35.9192 24.0005 35.3611C23.9968 34.8029 23.7138 34.2836 23.2469 33.9778C16.9139 29.828 15.8691 21.4919 15.7007 19.0171C19.942 15.5007 26.7117 17.3672 27.8282 18.4722C28.4774 19.1139 29.5222 19.1139 30.1714 18.4722C31.2897 17.3672 38.0609 15.5007 42.3006 19.0188C42.1341 21.4921 41.1191 29.8114 34.7527 33.9778C34.2858 34.2836 34.0028 34.8029 33.9991 35.3611C33.9954 35.9192 34.2715 36.4422 34.7344 36.7541C34.9244 36.8824 53.5147 49.8066 53.9897 83.6826C45.7817 85.517 37.409 86.5148 28.9998 86.6607Z" fill="#CD3F3E"/>
<path d="M34.6658 45.3304C33.9296 45.8827 33.7803 46.9272 34.3325 47.6636C38.6804 53.4166 44.6335 61.2943 45.6651 78.4248C45.7165 79.3074 46.4477 79.9962 47.3316 79.9946H47.4333C47.8757 79.9685 48.2893 79.7673 48.5829 79.4355C48.8766 79.1037 49.026 78.6685 48.9981 78.2264C47.9066 60.0942 41.6019 51.7514 36.9989 45.6587C36.4452 44.924 35.4009 44.7769 34.6658 45.3304Z" fill="#CD3F3E"/>
<path d="M23.3331 45.3337C22.5968 44.7814 21.5521 44.9306 20.9998 45.6671V45.6638C16.3951 51.77 10.0906 60.1294 9.00065 78.2299C8.9737 78.6718 9.12388 79.1062 9.41781 79.4374C9.71173 79.7684 10.1252 79.969 10.5673 79.9948H10.6673C11.5495 79.9963 12.2801 79.3105 12.3338 78.4299C13.3654 61.331 19.3183 53.4316 23.6664 47.6669C24.2188 46.9305 24.0695 45.8858 23.3331 45.3337Z" fill="#CD3F3E"/>
</svg>
